<mxfile host="app.diagrams.net" modified="2024-06-06T14:12:46.829Z" agent="Mozilla/5.0 (Windows NT 10.0; Win64; x64) AppleWebKit/537.36 (KHTML, like Gecko) Chrome/124.0.0.0 Safari/537.36 OPR/110.0.0.0" etag="083LAZmmj6KXN-hVTlt1" version="24.4.15" type="device">
  <diagram name="Page-1" id="m7vYZmnNS4jcS2sut7mV">
    <mxGraphModel dx="1435" dy="666" grid="1" gridSize="10" guides="1" tooltips="1" connect="1" arrows="1" fold="1" page="1" pageScale="1" pageWidth="827" pageHeight="1169" math="0" shadow="0">
      <root>
        <mxCell id="0" />
        <mxCell id="1" parent="0" />
        <mxCell id="nerjAe80Xk4Q7pb-X18H-31" value="«extend»" style="html=1;verticalAlign=bottom;endArrow=open;dashed=1;endSize=8;exitX=1;exitY=0.5;exitDx=0;exitDy=0;" edge="1" parent="1" source="nerjAe80Xk4Q7pb-X18H-96" target="nerjAe80Xk4Q7pb-X18H-92">
          <mxGeometry relative="1" as="geometry">
            <mxPoint x="250.5" y="560" as="sourcePoint" />
            <mxPoint x="280" y="635" as="targetPoint" />
          </mxGeometry>
        </mxCell>
        <mxCell id="nerjAe80Xk4Q7pb-X18H-51" value="Diagram Biznesowych Przypadków Użycia &quot;Wydawanie pozwolenia na pobyt dla cudzodziemcow&quot;" style="shape=umlFrame;whiteSpace=wrap;html=1;fillColor=#FFFFFF;width=350;height=30;" vertex="1" parent="1">
          <mxGeometry x="10" y="200" width="1000" height="660" as="geometry" />
        </mxCell>
        <mxCell id="nerjAe80Xk4Q7pb-X18H-52" value="" style="group" vertex="1" connectable="0" parent="1">
          <mxGeometry x="50" y="430" width="30" height="60" as="geometry" />
        </mxCell>
        <mxCell id="nerjAe80Xk4Q7pb-X18H-53" value="&lt;div&gt;«business actor»&lt;/div&gt;&lt;div&gt;Cudzoziemiec&lt;br&gt;&lt;/div&gt;" style="shape=umlActor;verticalLabelPosition=bottom;labelBackgroundColor=#ffffff;verticalAlign=top;html=1;" vertex="1" parent="nerjAe80Xk4Q7pb-X18H-52">
          <mxGeometry width="30" height="60" as="geometry" />
        </mxCell>
        <mxCell id="nerjAe80Xk4Q7pb-X18H-54" value="" style="endArrow=none;html=1;exitX=0.511;exitY=0.25;exitDx=0;exitDy=0;exitPerimeter=0;entryX=0.75;entryY=0.1;entryDx=0;entryDy=0;entryPerimeter=0;" edge="1" parent="nerjAe80Xk4Q7pb-X18H-52" source="nerjAe80Xk4Q7pb-X18H-53" target="nerjAe80Xk4Q7pb-X18H-53">
          <mxGeometry width="50" height="50" relative="1" as="geometry">
            <mxPoint x="40" y="50" as="sourcePoint" />
            <mxPoint x="90" as="targetPoint" />
          </mxGeometry>
        </mxCell>
        <mxCell id="nerjAe80Xk4Q7pb-X18H-56" value="" style="group" vertex="1" connectable="0" parent="1">
          <mxGeometry x="170" y="330" width="140" height="70" as="geometry" />
        </mxCell>
        <mxCell id="nerjAe80Xk4Q7pb-X18H-57" value="Złożenie Wniosku o Pozwolenie na Pobyt" style="ellipse;whiteSpace=wrap;html=1;" vertex="1" parent="nerjAe80Xk4Q7pb-X18H-56">
          <mxGeometry width="140" height="70" as="geometry" />
        </mxCell>
        <mxCell id="nerjAe80Xk4Q7pb-X18H-58" value="" style="endArrow=none;html=1;exitX=1;exitY=1;exitDx=0;exitDy=0;entryX=1;entryY=0.5;entryDx=0;entryDy=0;" edge="1" parent="nerjAe80Xk4Q7pb-X18H-56" source="nerjAe80Xk4Q7pb-X18H-57" target="nerjAe80Xk4Q7pb-X18H-57">
          <mxGeometry width="50" height="50" relative="1" as="geometry">
            <mxPoint x="120" y="170" as="sourcePoint" />
            <mxPoint x="170" y="120" as="targetPoint" />
          </mxGeometry>
        </mxCell>
        <mxCell id="nerjAe80Xk4Q7pb-X18H-59" style="edgeStyle=orthogonalEdgeStyle;rounded=0;orthogonalLoop=1;jettySize=auto;html=1;" edge="1" parent="1" source="nerjAe80Xk4Q7pb-X18H-53" target="nerjAe80Xk4Q7pb-X18H-57">
          <mxGeometry relative="1" as="geometry">
            <Array as="points">
              <mxPoint x="65" y="370" />
            </Array>
          </mxGeometry>
        </mxCell>
        <mxCell id="nerjAe80Xk4Q7pb-X18H-60" value="" style="group" vertex="1" connectable="0" parent="1">
          <mxGeometry x="414" y="330" width="140" height="70" as="geometry" />
        </mxCell>
        <mxCell id="nerjAe80Xk4Q7pb-X18H-61" value="Kontakt z Biurem Informacji" style="ellipse;whiteSpace=wrap;html=1;" vertex="1" parent="nerjAe80Xk4Q7pb-X18H-60">
          <mxGeometry width="140" height="70" as="geometry" />
        </mxCell>
        <mxCell id="nerjAe80Xk4Q7pb-X18H-62" value="" style="endArrow=none;html=1;exitX=1;exitY=1;exitDx=0;exitDy=0;entryX=1;entryY=0.5;entryDx=0;entryDy=0;" edge="1" parent="nerjAe80Xk4Q7pb-X18H-60" source="nerjAe80Xk4Q7pb-X18H-61" target="nerjAe80Xk4Q7pb-X18H-61">
          <mxGeometry width="50" height="50" relative="1" as="geometry">
            <mxPoint x="120" y="170" as="sourcePoint" />
            <mxPoint x="170" y="120" as="targetPoint" />
          </mxGeometry>
        </mxCell>
        <mxCell id="nerjAe80Xk4Q7pb-X18H-64" value="«include»" style="html=1;verticalAlign=bottom;endArrow=open;dashed=1;endSize=8;exitX=1;exitY=0.5;exitDx=0;exitDy=0;entryX=0;entryY=0.5;entryDx=0;entryDy=0;" edge="1" parent="1" source="nerjAe80Xk4Q7pb-X18H-57" target="nerjAe80Xk4Q7pb-X18H-61">
          <mxGeometry relative="1" as="geometry">
            <mxPoint x="354.5" y="450" as="sourcePoint" />
            <mxPoint x="455.5" y="495" as="targetPoint" />
          </mxGeometry>
        </mxCell>
        <mxCell id="nerjAe80Xk4Q7pb-X18H-65" value="" style="group" vertex="1" connectable="0" parent="1">
          <mxGeometry x="700" y="330" width="140" height="70" as="geometry" />
        </mxCell>
        <mxCell id="nerjAe80Xk4Q7pb-X18H-66" value="Umówienie Spotkania" style="ellipse;whiteSpace=wrap;html=1;" vertex="1" parent="nerjAe80Xk4Q7pb-X18H-65">
          <mxGeometry width="140" height="70" as="geometry" />
        </mxCell>
        <mxCell id="nerjAe80Xk4Q7pb-X18H-67" value="" style="endArrow=none;html=1;exitX=1;exitY=1;exitDx=0;exitDy=0;entryX=1;entryY=0.5;entryDx=0;entryDy=0;" edge="1" parent="nerjAe80Xk4Q7pb-X18H-65" source="nerjAe80Xk4Q7pb-X18H-66" target="nerjAe80Xk4Q7pb-X18H-66">
          <mxGeometry width="50" height="50" relative="1" as="geometry">
            <mxPoint x="120" y="170" as="sourcePoint" />
            <mxPoint x="170" y="120" as="targetPoint" />
          </mxGeometry>
        </mxCell>
        <mxCell id="nerjAe80Xk4Q7pb-X18H-68" value="" style="group" vertex="1" connectable="0" parent="1">
          <mxGeometry x="500" y="610" width="140" height="70" as="geometry" />
        </mxCell>
        <mxCell id="nerjAe80Xk4Q7pb-X18H-69" value="Przetwarzanie Dokumentów" style="ellipse;whiteSpace=wrap;html=1;" vertex="1" parent="nerjAe80Xk4Q7pb-X18H-68">
          <mxGeometry width="140" height="70" as="geometry" />
        </mxCell>
        <mxCell id="nerjAe80Xk4Q7pb-X18H-70" value="" style="endArrow=none;html=1;exitX=1;exitY=1;exitDx=0;exitDy=0;entryX=1;entryY=0.5;entryDx=0;entryDy=0;" edge="1" parent="nerjAe80Xk4Q7pb-X18H-68" source="nerjAe80Xk4Q7pb-X18H-69" target="nerjAe80Xk4Q7pb-X18H-69">
          <mxGeometry width="50" height="50" relative="1" as="geometry">
            <mxPoint x="120" y="170" as="sourcePoint" />
            <mxPoint x="170" y="120" as="targetPoint" />
          </mxGeometry>
        </mxCell>
        <mxCell id="nerjAe80Xk4Q7pb-X18H-71" value="" style="group" vertex="1" connectable="0" parent="1">
          <mxGeometry x="280" y="460" width="140" height="70" as="geometry" />
        </mxCell>
        <mxCell id="nerjAe80Xk4Q7pb-X18H-72" value=" Drukowanie Pozwolenia" style="ellipse;whiteSpace=wrap;html=1;" vertex="1" parent="nerjAe80Xk4Q7pb-X18H-71">
          <mxGeometry width="140" height="70" as="geometry" />
        </mxCell>
        <mxCell id="nerjAe80Xk4Q7pb-X18H-73" value="" style="endArrow=none;html=1;exitX=1;exitY=1;exitDx=0;exitDy=0;entryX=1;entryY=0.5;entryDx=0;entryDy=0;" edge="1" parent="nerjAe80Xk4Q7pb-X18H-71" source="nerjAe80Xk4Q7pb-X18H-72" target="nerjAe80Xk4Q7pb-X18H-72">
          <mxGeometry width="50" height="50" relative="1" as="geometry">
            <mxPoint x="120" y="170" as="sourcePoint" />
            <mxPoint x="170" y="120" as="targetPoint" />
          </mxGeometry>
        </mxCell>
        <mxCell id="nerjAe80Xk4Q7pb-X18H-74" value="" style="group" vertex="1" connectable="0" parent="1">
          <mxGeometry x="500" y="460" width="140" height="70" as="geometry" />
        </mxCell>
        <mxCell id="nerjAe80Xk4Q7pb-X18H-75" value="Zatwierdzenie Pozwolenia" style="ellipse;whiteSpace=wrap;html=1;" vertex="1" parent="nerjAe80Xk4Q7pb-X18H-74">
          <mxGeometry width="140" height="70" as="geometry" />
        </mxCell>
        <mxCell id="nerjAe80Xk4Q7pb-X18H-76" value="" style="endArrow=none;html=1;exitX=1;exitY=1;exitDx=0;exitDy=0;entryX=1;entryY=0.5;entryDx=0;entryDy=0;" edge="1" parent="nerjAe80Xk4Q7pb-X18H-74" source="nerjAe80Xk4Q7pb-X18H-75" target="nerjAe80Xk4Q7pb-X18H-75">
          <mxGeometry width="50" height="50" relative="1" as="geometry">
            <mxPoint x="120" y="170" as="sourcePoint" />
            <mxPoint x="170" y="120" as="targetPoint" />
          </mxGeometry>
        </mxCell>
        <mxCell id="nerjAe80Xk4Q7pb-X18H-77" value="" style="group" vertex="1" connectable="0" parent="1">
          <mxGeometry x="700" y="470" width="140" height="70" as="geometry" />
        </mxCell>
        <mxCell id="nerjAe80Xk4Q7pb-X18H-78" value="Złożenie Dokumentów" style="ellipse;whiteSpace=wrap;html=1;" vertex="1" parent="nerjAe80Xk4Q7pb-X18H-77">
          <mxGeometry width="140" height="70" as="geometry" />
        </mxCell>
        <mxCell id="nerjAe80Xk4Q7pb-X18H-79" value="" style="endArrow=none;html=1;exitX=1;exitY=1;exitDx=0;exitDy=0;entryX=1;entryY=0.5;entryDx=0;entryDy=0;" edge="1" parent="nerjAe80Xk4Q7pb-X18H-77" source="nerjAe80Xk4Q7pb-X18H-78" target="nerjAe80Xk4Q7pb-X18H-78">
          <mxGeometry width="50" height="50" relative="1" as="geometry">
            <mxPoint x="120" y="170" as="sourcePoint" />
            <mxPoint x="170" y="120" as="targetPoint" />
          </mxGeometry>
        </mxCell>
        <mxCell id="nerjAe80Xk4Q7pb-X18H-87" value="«include»" style="html=1;verticalAlign=bottom;endArrow=open;dashed=1;endSize=8;entryX=0.5;entryY=0;entryDx=0;entryDy=0;" edge="1" parent="nerjAe80Xk4Q7pb-X18H-77" target="nerjAe80Xk4Q7pb-X18H-81">
          <mxGeometry relative="1" as="geometry">
            <mxPoint x="70" y="62" as="sourcePoint" />
            <mxPoint x="107" y="125" as="targetPoint" />
            <Array as="points" />
          </mxGeometry>
        </mxCell>
        <mxCell id="nerjAe80Xk4Q7pb-X18H-80" value="" style="group" vertex="1" connectable="0" parent="1">
          <mxGeometry x="700" y="610" width="140" height="70" as="geometry" />
        </mxCell>
        <mxCell id="nerjAe80Xk4Q7pb-X18H-81" value="Weryfikacja Dokumentów" style="ellipse;whiteSpace=wrap;html=1;" vertex="1" parent="nerjAe80Xk4Q7pb-X18H-80">
          <mxGeometry width="140" height="70" as="geometry" />
        </mxCell>
        <mxCell id="nerjAe80Xk4Q7pb-X18H-82" value="" style="endArrow=none;html=1;exitX=1;exitY=1;exitDx=0;exitDy=0;entryX=1;entryY=0.5;entryDx=0;entryDy=0;" edge="1" parent="nerjAe80Xk4Q7pb-X18H-80" source="nerjAe80Xk4Q7pb-X18H-81" target="nerjAe80Xk4Q7pb-X18H-81">
          <mxGeometry width="50" height="50" relative="1" as="geometry">
            <mxPoint x="120" y="170" as="sourcePoint" />
            <mxPoint x="170" y="120" as="targetPoint" />
          </mxGeometry>
        </mxCell>
        <mxCell id="nerjAe80Xk4Q7pb-X18H-83" value="«include»" style="html=1;verticalAlign=bottom;endArrow=open;dashed=1;endSize=8;exitX=1;exitY=0.5;exitDx=0;exitDy=0;entryX=0;entryY=0.5;entryDx=0;entryDy=0;" edge="1" parent="1" source="nerjAe80Xk4Q7pb-X18H-61" target="nerjAe80Xk4Q7pb-X18H-66">
          <mxGeometry relative="1" as="geometry">
            <mxPoint x="530" y="490" as="sourcePoint" />
            <mxPoint x="604" y="395" as="targetPoint" />
          </mxGeometry>
        </mxCell>
        <mxCell id="nerjAe80Xk4Q7pb-X18H-85" value="«include»" style="html=1;verticalAlign=bottom;endArrow=open;dashed=1;endSize=8;entryX=0.5;entryY=0;entryDx=0;entryDy=0;" edge="1" parent="1" source="nerjAe80Xk4Q7pb-X18H-66" target="nerjAe80Xk4Q7pb-X18H-78">
          <mxGeometry relative="1" as="geometry">
            <mxPoint x="680" y="400" as="sourcePoint" />
            <mxPoint x="624" y="375" as="targetPoint" />
            <Array as="points" />
          </mxGeometry>
        </mxCell>
        <mxCell id="nerjAe80Xk4Q7pb-X18H-88" value="«include»" style="html=1;verticalAlign=bottom;endArrow=open;dashed=1;endSize=8;exitX=0;exitY=0.5;exitDx=0;exitDy=0;entryX=1;entryY=0.5;entryDx=0;entryDy=0;" edge="1" parent="1" source="nerjAe80Xk4Q7pb-X18H-81" target="nerjAe80Xk4Q7pb-X18H-69">
          <mxGeometry relative="1" as="geometry">
            <mxPoint x="517" y="603.5" as="sourcePoint" />
            <mxPoint x="480" y="620" as="targetPoint" />
            <Array as="points" />
          </mxGeometry>
        </mxCell>
        <mxCell id="nerjAe80Xk4Q7pb-X18H-89" value="«include»" style="html=1;verticalAlign=bottom;endArrow=open;dashed=1;endSize=8;entryX=0.5;entryY=1;entryDx=0;entryDy=0;exitX=0.5;exitY=0;exitDx=0;exitDy=0;" edge="1" parent="1" source="nerjAe80Xk4Q7pb-X18H-69" target="nerjAe80Xk4Q7pb-X18H-75">
          <mxGeometry relative="1" as="geometry">
            <mxPoint x="460" y="500" as="sourcePoint" />
            <mxPoint x="497" y="563" as="targetPoint" />
            <Array as="points" />
          </mxGeometry>
        </mxCell>
        <mxCell id="nerjAe80Xk4Q7pb-X18H-90" value="«include»" style="html=1;verticalAlign=bottom;endArrow=open;dashed=1;endSize=8;exitX=0;exitY=0.5;exitDx=0;exitDy=0;" edge="1" parent="1" source="nerjAe80Xk4Q7pb-X18H-75" target="nerjAe80Xk4Q7pb-X18H-72">
          <mxGeometry relative="1" as="geometry">
            <mxPoint x="340" y="558" as="sourcePoint" />
            <mxPoint x="455" y="510" as="targetPoint" />
            <Array as="points" />
          </mxGeometry>
        </mxCell>
        <mxCell id="nerjAe80Xk4Q7pb-X18H-91" value="" style="group" vertex="1" connectable="0" parent="1">
          <mxGeometry x="280" y="600" width="140" height="70" as="geometry" />
        </mxCell>
        <mxCell id="nerjAe80Xk4Q7pb-X18H-92" value=" Informowanie Cudzoziemca" style="ellipse;whiteSpace=wrap;html=1;" vertex="1" parent="nerjAe80Xk4Q7pb-X18H-91">
          <mxGeometry width="140" height="70" as="geometry" />
        </mxCell>
        <mxCell id="nerjAe80Xk4Q7pb-X18H-93" value="" style="endArrow=none;html=1;exitX=1;exitY=1;exitDx=0;exitDy=0;entryX=1;entryY=0.5;entryDx=0;entryDy=0;" edge="1" parent="nerjAe80Xk4Q7pb-X18H-91" source="nerjAe80Xk4Q7pb-X18H-92" target="nerjAe80Xk4Q7pb-X18H-92">
          <mxGeometry width="50" height="50" relative="1" as="geometry">
            <mxPoint x="120" y="170" as="sourcePoint" />
            <mxPoint x="170" y="120" as="targetPoint" />
          </mxGeometry>
        </mxCell>
        <mxCell id="nerjAe80Xk4Q7pb-X18H-94" value="«include»" style="html=1;verticalAlign=bottom;endArrow=open;dashed=1;endSize=8;exitX=0.5;exitY=1;exitDx=0;exitDy=0;" edge="1" parent="1" source="nerjAe80Xk4Q7pb-X18H-72" target="nerjAe80Xk4Q7pb-X18H-92">
          <mxGeometry relative="1" as="geometry">
            <mxPoint x="362" y="630" as="sourcePoint" />
            <mxPoint x="200" y="663" as="targetPoint" />
            <Array as="points" />
          </mxGeometry>
        </mxCell>
        <mxCell id="nerjAe80Xk4Q7pb-X18H-95" value="" style="group" vertex="1" connectable="0" parent="1">
          <mxGeometry x="40" y="600" width="140" height="70" as="geometry" />
        </mxCell>
        <mxCell id="nerjAe80Xk4Q7pb-X18H-96" value=" Obsługa Brakujących/Niepoprawnych Dokumentów" style="ellipse;whiteSpace=wrap;html=1;" vertex="1" parent="nerjAe80Xk4Q7pb-X18H-95">
          <mxGeometry width="140" height="70" as="geometry" />
        </mxCell>
        <mxCell id="nerjAe80Xk4Q7pb-X18H-97" value="" style="endArrow=none;html=1;exitX=1;exitY=1;exitDx=0;exitDy=0;entryX=1;entryY=0.5;entryDx=0;entryDy=0;" edge="1" parent="nerjAe80Xk4Q7pb-X18H-95" source="nerjAe80Xk4Q7pb-X18H-96" target="nerjAe80Xk4Q7pb-X18H-96">
          <mxGeometry width="50" height="50" relative="1" as="geometry">
            <mxPoint x="120" y="170" as="sourcePoint" />
            <mxPoint x="170" y="120" as="targetPoint" />
          </mxGeometry>
        </mxCell>
        <mxCell id="nerjAe80Xk4Q7pb-X18H-101" value="«supports»" style="html=1;verticalAlign=bottom;endArrow=open;dashed=1;endSize=8;entryX=1;entryY=0.5;entryDx=0;entryDy=0;exitX=0.5;exitY=0;exitDx=0;exitDy=0;edgeStyle=orthogonalEdgeStyle;" edge="1" parent="1" source="nerjAe80Xk4Q7pb-X18H-61" target="nerjAe80Xk4Q7pb-X18H-102">
          <mxGeometry relative="1" as="geometry">
            <mxPoint x="480" y="400" as="sourcePoint" />
            <mxPoint x="480" y="450" as="targetPoint" />
          </mxGeometry>
        </mxCell>
        <mxCell id="nerjAe80Xk4Q7pb-X18H-102" value="Udzielanie informacji&amp;nbsp;" style="ellipse;shape=doubleEllipse;whiteSpace=wrap;html=1;aspect=fixed;fillColor=#FFFFFF;labelPosition=center;verticalLabelPosition=bottom;align=center;verticalAlign=top;" vertex="1" parent="1">
          <mxGeometry x="350" y="230" width="50" height="50" as="geometry" />
        </mxCell>
        <mxCell id="nerjAe80Xk4Q7pb-X18H-104" value="«supports»" style="html=1;verticalAlign=bottom;endArrow=open;dashed=1;endSize=8;exitX=0.5;exitY=0;exitDx=0;exitDy=0;entryX=1;entryY=0.5;entryDx=0;entryDy=0;edgeStyle=orthogonalEdgeStyle;" edge="1" parent="1" source="nerjAe80Xk4Q7pb-X18H-66" target="nerjAe80Xk4Q7pb-X18H-105">
          <mxGeometry x="0.0325" relative="1" as="geometry">
            <mxPoint x="804" y="325" as="sourcePoint" />
            <mxPoint x="770" y="280" as="targetPoint" />
            <mxPoint y="-1" as="offset" />
          </mxGeometry>
        </mxCell>
        <mxCell id="nerjAe80Xk4Q7pb-X18H-105" value="Planowanie spotkan" style="ellipse;shape=doubleEllipse;whiteSpace=wrap;html=1;aspect=fixed;fillColor=#FFFFFF;labelPosition=center;verticalLabelPosition=bottom;align=center;verticalAlign=top;" vertex="1" parent="1">
          <mxGeometry x="630" y="230" width="50" height="50" as="geometry" />
        </mxCell>
        <mxCell id="nerjAe80Xk4Q7pb-X18H-107" value="Komunikacja z klientem" style="ellipse;shape=doubleEllipse;whiteSpace=wrap;html=1;aspect=fixed;fillColor=#FFFFFF;labelPosition=center;verticalLabelPosition=bottom;align=center;verticalAlign=top;" vertex="1" parent="1">
          <mxGeometry x="325" y="730" width="50" height="50" as="geometry" />
        </mxCell>
        <mxCell id="nerjAe80Xk4Q7pb-X18H-108" value="Produkcja dokumentow" style="ellipse;shape=doubleEllipse;whiteSpace=wrap;html=1;aspect=fixed;fillColor=#FFFFFF;labelPosition=center;verticalLabelPosition=bottom;align=center;verticalAlign=top;" vertex="1" parent="1">
          <mxGeometry x="160" y="470" width="50" height="50" as="geometry" />
        </mxCell>
        <mxCell id="nerjAe80Xk4Q7pb-X18H-109" value="Decyzje administracyjne" style="ellipse;shape=doubleEllipse;whiteSpace=wrap;html=1;aspect=fixed;fillColor=#FFFFFF;labelPosition=center;verticalLabelPosition=bottom;align=center;verticalAlign=top;" vertex="1" parent="1">
          <mxGeometry x="650" y="390" width="50" height="50" as="geometry" />
        </mxCell>
        <mxCell id="nerjAe80Xk4Q7pb-X18H-110" value="Weryfikacja informacji" style="ellipse;shape=doubleEllipse;whiteSpace=wrap;html=1;aspect=fixed;fillColor=#FFFFFF;labelPosition=center;verticalLabelPosition=bottom;align=center;verticalAlign=top;" vertex="1" parent="1">
          <mxGeometry x="545" y="760" width="50" height="50" as="geometry" />
        </mxCell>
        <mxCell id="nerjAe80Xk4Q7pb-X18H-111" value="Sprawdzanie dokumentow" style="ellipse;shape=doubleEllipse;whiteSpace=wrap;html=1;aspect=fixed;fillColor=#FFFFFF;labelPosition=center;verticalLabelPosition=bottom;align=center;verticalAlign=top;" vertex="1" parent="1">
          <mxGeometry x="930" y="620" width="50" height="50" as="geometry" />
        </mxCell>
        <mxCell id="nerjAe80Xk4Q7pb-X18H-112" value="Przyjmowanie dokumentow&lt;div&gt;&lt;br&gt;&lt;/div&gt;" style="ellipse;shape=doubleEllipse;whiteSpace=wrap;html=1;aspect=fixed;fillColor=#FFFFFF;labelPosition=center;verticalLabelPosition=bottom;align=center;verticalAlign=top;" vertex="1" parent="1">
          <mxGeometry x="920" y="480" width="50" height="50" as="geometry" />
        </mxCell>
        <mxCell id="nerjAe80Xk4Q7pb-X18H-113" value="«supports»" style="html=1;verticalAlign=bottom;endArrow=open;dashed=1;endSize=8;entryX=0;entryY=0.5;entryDx=0;entryDy=0;" edge="1" parent="1" source="nerjAe80Xk4Q7pb-X18H-78" target="nerjAe80Xk4Q7pb-X18H-112">
          <mxGeometry x="-0.0588" relative="1" as="geometry">
            <mxPoint x="840" y="500" as="sourcePoint" />
            <mxPoint x="1070" y="403" as="targetPoint" />
            <mxPoint as="offset" />
          </mxGeometry>
        </mxCell>
        <mxCell id="nerjAe80Xk4Q7pb-X18H-114" value="«supports»" style="html=1;verticalAlign=bottom;endArrow=open;dashed=1;endSize=8;exitX=1;exitY=0.5;exitDx=0;exitDy=0;entryX=0;entryY=0.5;entryDx=0;entryDy=0;" edge="1" parent="1" source="nerjAe80Xk4Q7pb-X18H-81" target="nerjAe80Xk4Q7pb-X18H-111">
          <mxGeometry x="0.0325" relative="1" as="geometry">
            <mxPoint x="1137" y="393.5" as="sourcePoint" />
            <mxPoint x="1040" y="336.5" as="targetPoint" />
            <mxPoint y="-1" as="offset" />
          </mxGeometry>
        </mxCell>
        <mxCell id="nerjAe80Xk4Q7pb-X18H-115" value="«supports»" style="html=1;verticalAlign=bottom;endArrow=open;dashed=1;endSize=8;exitX=0.5;exitY=1;exitDx=0;exitDy=0;entryX=0.5;entryY=0;entryDx=0;entryDy=0;" edge="1" parent="1" source="nerjAe80Xk4Q7pb-X18H-69" target="nerjAe80Xk4Q7pb-X18H-110">
          <mxGeometry x="0.0325" relative="1" as="geometry">
            <mxPoint x="1217" y="387" as="sourcePoint" />
            <mxPoint x="1120" y="330" as="targetPoint" />
            <mxPoint y="-1" as="offset" />
          </mxGeometry>
        </mxCell>
        <mxCell id="nerjAe80Xk4Q7pb-X18H-116" value="«supports»" style="html=1;verticalAlign=bottom;endArrow=open;dashed=1;endSize=8;exitX=0.5;exitY=0;exitDx=0;exitDy=0;entryX=0;entryY=0.5;entryDx=0;entryDy=0;edgeStyle=orthogonalEdgeStyle;" edge="1" parent="1" source="nerjAe80Xk4Q7pb-X18H-75" target="nerjAe80Xk4Q7pb-X18H-109">
          <mxGeometry x="0.0325" relative="1" as="geometry">
            <mxPoint x="1143.5" y="417" as="sourcePoint" />
            <mxPoint x="1046.5" y="360" as="targetPoint" />
            <mxPoint y="-1" as="offset" />
          </mxGeometry>
        </mxCell>
        <mxCell id="nerjAe80Xk4Q7pb-X18H-118" value="" style="endArrow=blockThin;startArrow=ERmany;startFill=0;endFill=0;" edge="1" parent="1">
          <mxGeometry width="50" height="50" relative="1" as="geometry">
            <mxPoint x="400" y="230" as="sourcePoint" />
            <mxPoint x="370" y="260" as="targetPoint" />
          </mxGeometry>
        </mxCell>
        <mxCell id="nerjAe80Xk4Q7pb-X18H-119" value="" style="endArrow=blockThin;startArrow=ERmany;startFill=0;endFill=0;" edge="1" parent="1">
          <mxGeometry width="50" height="50" relative="1" as="geometry">
            <mxPoint x="210" y="460" as="sourcePoint" />
            <mxPoint x="180" y="490" as="targetPoint" />
          </mxGeometry>
        </mxCell>
        <mxCell id="nerjAe80Xk4Q7pb-X18H-120" value="" style="endArrow=blockThin;startArrow=ERmany;startFill=0;endFill=0;" edge="1" parent="1">
          <mxGeometry width="50" height="50" relative="1" as="geometry">
            <mxPoint x="990" y="610" as="sourcePoint" />
            <mxPoint x="960" y="640" as="targetPoint" />
          </mxGeometry>
        </mxCell>
        <mxCell id="nerjAe80Xk4Q7pb-X18H-121" value="" style="endArrow=blockThin;startArrow=ERmany;startFill=0;endFill=0;" edge="1" parent="1">
          <mxGeometry width="50" height="50" relative="1" as="geometry">
            <mxPoint x="600" y="750" as="sourcePoint" />
            <mxPoint x="570" y="780" as="targetPoint" />
          </mxGeometry>
        </mxCell>
        <mxCell id="nerjAe80Xk4Q7pb-X18H-122" value="" style="endArrow=blockThin;startArrow=ERmany;startFill=0;endFill=0;" edge="1" parent="1">
          <mxGeometry width="50" height="50" relative="1" as="geometry">
            <mxPoint x="980" y="470" as="sourcePoint" />
            <mxPoint x="950" y="500" as="targetPoint" />
          </mxGeometry>
        </mxCell>
        <mxCell id="nerjAe80Xk4Q7pb-X18H-123" value="" style="endArrow=blockThin;startArrow=ERmany;startFill=0;endFill=0;" edge="1" parent="1">
          <mxGeometry width="50" height="50" relative="1" as="geometry">
            <mxPoint x="700" y="390" as="sourcePoint" />
            <mxPoint x="670" y="420" as="targetPoint" />
          </mxGeometry>
        </mxCell>
        <mxCell id="nerjAe80Xk4Q7pb-X18H-124" value="" style="endArrow=blockThin;startArrow=ERmany;startFill=0;endFill=0;" edge="1" parent="1">
          <mxGeometry width="50" height="50" relative="1" as="geometry">
            <mxPoint x="690" y="220" as="sourcePoint" />
            <mxPoint x="660" y="250" as="targetPoint" />
          </mxGeometry>
        </mxCell>
        <mxCell id="nerjAe80Xk4Q7pb-X18H-125" value="«supports»" style="html=1;verticalAlign=bottom;endArrow=open;dashed=1;endSize=8;exitX=0;exitY=0.5;exitDx=0;exitDy=0;entryX=1;entryY=0.5;entryDx=0;entryDy=0;edgeStyle=orthogonalEdgeStyle;" edge="1" parent="1" source="nerjAe80Xk4Q7pb-X18H-72" target="nerjAe80Xk4Q7pb-X18H-108">
          <mxGeometry x="0.0325" relative="1" as="geometry">
            <mxPoint x="199.5" y="455" as="sourcePoint" />
            <mxPoint x="279.5" y="410" as="targetPoint" />
            <mxPoint y="-1" as="offset" />
          </mxGeometry>
        </mxCell>
        <mxCell id="nerjAe80Xk4Q7pb-X18H-126" value="" style="endArrow=blockThin;startArrow=ERmany;startFill=0;endFill=0;" edge="1" parent="1">
          <mxGeometry width="50" height="50" relative="1" as="geometry">
            <mxPoint x="390" y="720" as="sourcePoint" />
            <mxPoint x="360" y="750" as="targetPoint" />
          </mxGeometry>
        </mxCell>
        <mxCell id="nerjAe80Xk4Q7pb-X18H-127" value="«supports»" style="html=1;verticalAlign=bottom;endArrow=open;dashed=1;endSize=8;exitX=0.5;exitY=1;exitDx=0;exitDy=0;entryX=0.5;entryY=0;entryDx=0;entryDy=0;edgeStyle=orthogonalEdgeStyle;" edge="1" parent="1" source="nerjAe80Xk4Q7pb-X18H-92" target="nerjAe80Xk4Q7pb-X18H-107">
          <mxGeometry x="0.0325" relative="1" as="geometry">
            <mxPoint x="290" y="730" as="sourcePoint" />
            <mxPoint x="220" y="730" as="targetPoint" />
            <mxPoint y="-1" as="offset" />
          </mxGeometry>
        </mxCell>
      </root>
    </mxGraphModel>
  </diagram>
</mxfile>
